# xmcd
# 
# Track frame offsets:
#     150
#     14756
#     34109
#     59221
#     88620
#     115242
#     137511
# 
# Disc length: 2312
# 
# Revision: 3
# Processed by: cddbd v1.5.2PL0 Copyright (c) Steve Scherf et al.
# Submitted via: fre:ac v1.0.31
# 
DISCID=60090607
DTITLE=Thelonious Monk - The Unique Thelonious Monk
DYEAR=1956
DGENRE=Jazz
TTITLE0=Liza (All the Clouds'll Roll Away)
TTITLE1=Memories of You
TTITLE2=Honeysuckle Rose
TTITLE3=Darn That Dream
TTITLE4=Tea for Two
TTITLE5=You Are Too Beautiful
TTITLE6=Just You, Just Me
EXTD=YEAR: 1956
EXTT0=
EXTT1=
EXTT2=
EXTT3=
EXTT4=
EXTT5=
EXTT6=
PLAYORDER=
